<mxfile host="app.diagrams.net" modified="2024-05-17T02:44:01.372Z" agent="Mozilla/5.0 (Windows NT 10.0; Win64; x64) AppleWebKit/537.36 (KHTML, like Gecko) Chrome/124.0.0.0 Safari/537.36" version="24.3.1" etag="4Dc9y9v4mTTrbdFx9jtG" type="github">
  <diagram name="第 1 页" id="HGUJWFGlXxFewhiq5pfR">
    <mxGraphModel>
      <root>
        <mxCell id="0" />
        <mxCell id="1" parent="0" />
      </root>
    </mxGraphModel>
  </diagram>
</mxfile>
